<?xml version="1.0" encoding="UTF-8"?>
<svg id="Capa_2" data-name="Capa 2" xmlns="http://www.w3.org/2000/svg" viewBox="0 0 900.29 963">
  <defs>
    <style>
      .cls-1 {
        fill: #6dd15e;
      }

      .cls-1, .cls-2, .cls-3 {
        stroke-width: 0px;
      }

      .cls-2 {
        fill: #fff;
      }

      .cls-3 {
        fill: #f25f6d;
      }
    </style>
  </defs>
  <g id="Capa_1-2" data-name="Capa 1">
    <g id="OBJECTS">
      <g>
        <g>
          <path class="cls-3" d="M319.57,238.82c-3.44-14.6-4.3-29.21-2.58-44.67C164.08,249.13,54.12,395.16,54.12,566.98c0,6.87,0,12.89.86,18.9,12.89-5.15,27.49-8.59,42.09-9.45v-9.45c-.86-148.62,91.92-276.62,222.49-328.16Z"/>
          <path class="cls-3" d="M804.07,389.15c-11.17,8.59-22.34,17.18-34.36,26.63,22.34,46.39,34.36,97.93,34.36,152.05v9.45c6.01,0,12.03.86,17.18,1.72,8.59,1.72,16.32,4.3,24.91,6.87,0-6.01.86-12.89.86-18.9-.86-63.57-16.32-123.7-42.95-177.82Z"/>
          <path class="cls-3" d="M450.14,920.91c-101.37,0-192.43-42.09-256.86-110.82-10.31,9.45-23.19,17.18-36.08,23.19,72.16,79.89,176.96,129.72,292.94,129.72s220.78-49.83,292.94-129.72c-12.89-6.01-25.77-13.74-36.08-23.19-64.43,68.72-156.35,110.82-256.86,110.82Z"/>
        </g>
        <g>
          <circle class="cls-3" cx="449.9" cy="207.77" r="103.94" transform="translate(-15.14 378.98) rotate(-45)"/>
          <circle class="cls-2" cx="420.08" cy="160.64" r="28.35"/>
        </g>
        <g>
          <g>
            <circle class="cls-3" cx="796.34" cy="711.3" r="103.95"/>
            <circle class="cls-2" cx="766.41" cy="663.27" r="28.35" transform="translate(-87.61 1209.13) rotate(-73.46)"/>
          </g>
          <g>
            <circle class="cls-3" cx="103.95" cy="711.3" r="103.95"/>
            <circle class="cls-2" cx="74.12" cy="663.37" r="28.35" transform="translate(-582.9 545.56) rotate(-73.46)"/>
          </g>
        </g>
        <g>
          <path class="cls-1" d="M862.49,266.31c-42.95,97.93-236.24,185.56-321.29,322.15-83.33,134.87-46.39,219.92-45.53,222.5h0c-4.3-2.58-150.33-91.06-97.07-271.46,56.7-192.43,261.15-266.31,354.79-368.53C851.32,64.43,839.3.86,838.44,0c3.44,2.58,91.92,109.96,24.05,266.31Z"/>
          <path class="cls-1" d="M377.98,532.61c-14.6,48.97-15.46,91.92-8.59,128.86-15.46-22.34-30.93-52.4-40.38-92.78-24.05-98.79-6.87-107.38-66.15-176.97,0,0,82.47,19.76,141.74,78.17-10.31,18.9-19.76,40.38-26.63,62.71Z"/>
        </g>
      </g>
    </g>
  </g>
</svg>