<?xml version="1.0" encoding="UTF-8"?>
<svg id="Capa_2" data-name="Capa 2" xmlns="http://www.w3.org/2000/svg" viewBox="0 0 5086.13 968.97">
  <defs>
    <style>
      .cls-1, .cls-2 {
        fill: #000;
      }

      .cls-1, .cls-3, .cls-4, .cls-5 {
        stroke-width: 0px;
      }

      .cls-2 {
        font-family: Helvetica, Helvetica;
        font-size: 199.06px;
      }

      .cls-2, .cls-6 {
        isolation: isolate;
      }

      .cls-3 {
        fill: #6dd15e;
      }

      .cls-4 {
        fill: #fff;
      }

      .cls-5 {
        fill: #f25f6d;
      }
    </style>
  </defs>
  <g id="Capa_1-2" data-name="Capa 1">
    <g class="cls-6">
      <path class="cls-1" d="M1192.09,156.49h340.51v83.91h-241.37v109.83h211.57v82.94h-211.57v200.23h-99.14V156.49Z"/>
      <path class="cls-1" d="M1884.46,590.2c-29.81,36.79-75.06,55.19-135.75,55.19s-105.94-18.4-135.75-55.19-44.71-81.09-44.71-132.89,14.9-95.06,44.71-132.4,75.05-56,135.75-56,105.95,18.67,135.75,56,44.71,81.47,44.71,132.4-14.9,96.09-44.71,132.89ZM1810.59,539.17c14.47-19.2,21.71-46.48,21.71-81.85s-7.24-62.6-21.71-81.69c-14.47-19.09-35.21-28.63-62.21-28.63s-47.79,9.55-62.37,28.63c-14.58,19.08-21.87,46.32-21.87,81.69s7.29,62.66,21.87,81.85c14.58,19.2,35.37,28.79,62.37,28.79s47.73-9.59,62.21-28.79Z"/>
      <path class="cls-1" d="M2289.77,590.2c-29.81,36.79-75.06,55.19-135.75,55.19s-105.94-18.4-135.75-55.19-44.71-81.09-44.71-132.89,14.9-95.06,44.71-132.4,75.05-56,135.75-56,105.95,18.67,135.75,56,44.71,81.47,44.71,132.4-14.9,96.09-44.71,132.89ZM2215.9,539.17c14.47-19.2,21.71-46.48,21.71-81.85s-7.24-62.6-21.71-81.69c-14.47-19.09-35.21-28.63-62.21-28.63s-47.79,9.55-62.37,28.63c-14.58,19.08-21.87,46.32-21.87,81.69s7.29,62.66,21.87,81.85c14.58,19.2,35.37,28.79,62.37,28.79s47.73-9.59,62.21-28.79Z"/>
      <path class="cls-1" d="M2587.84,285.92c16.63,9.4,30.13,22.41,40.5,39.04v-168.47h93.63v476.91h-89.75v-48.92c-13.18,20.95-28.19,36.18-45.03,45.68-16.85,9.5-37.8,14.26-62.85,14.26-41.26,0-75.98-16.69-104.16-50.06-28.19-33.37-42.28-76.19-42.28-128.46,0-60.26,13.88-107.67,41.63-142.23,27.75-34.56,64.85-51.84,111.29-51.84,21.38,0,40.39,4.7,57.02,14.09ZM2610.52,537.5c13.61-19.44,20.41-44.6,20.41-75.49,0-43.2-10.91-74.08-32.72-92.66-13.4-11.23-28.95-16.85-46.65-16.85-27,0-46.82,10.21-59.45,30.62-12.64,20.41-18.95,45.74-18.95,75.98,0,32.62,6.42,58.7,19.28,78.24,12.85,19.55,32.34,29.32,58.48,29.32s46.01-9.72,59.61-29.16Z"/>
      <path class="cls-1" d="M3092.78,155.84h103.68l-162.82,477.56h-94.28l-161.5-477.56h106.59l103.68,362.55,104.65-362.55Z"/>
      <path class="cls-1" d="M3331.72,238.14h-93.63v-85.21h93.63v85.21ZM3238.09,280.25h93.63v353.15h-93.63v-353.15Z"/>
      <path class="cls-1" d="M3492.74,520.66c1.95,16.42,6.19,28.08,12.7,34.99,11.5,12.31,32.77,18.47,63.81,18.47,18.23,0,32.72-2.7,43.46-8.1,10.74-5.4,16.11-13.5,16.11-24.3s-4.33-18.25-12.98-23.65c-8.66-5.4-40.86-14.69-96.6-27.86-40.13-9.93-68.4-22.36-84.81-37.26-16.42-14.69-24.62-35.85-24.62-63.5,0-32.61,12.82-60.64,38.47-84.08,25.65-23.43,61.75-35.15,108.28-35.15s80.14,8.8,107.95,26.41c27.81,17.61,43.78,48.01,47.9,91.2h-92.34c-1.3-11.88-4.66-21.27-10.07-28.19-10.19-12.52-27.51-18.79-51.98-18.79-20.14,0-34.49,3.13-43.05,9.4-8.56,6.27-12.83,13.61-12.83,22.03,0,10.59,4.55,18.26,13.65,23,9.09,4.97,41.23,13.5,96.41,25.6,36.78,8.64,64.36,21.71,82.72,39.2,18.14,17.71,27.22,39.85,27.22,66.42,0,34.99-13.04,63.56-39.12,85.7s-66.39,33.21-120.92,33.21-96.69-11.72-123.2-35.15c-26.52-23.43-39.77-53.3-39.77-89.58h93.63Z"/>
      <path class="cls-1" d="M3885.1,238.14h-93.63v-85.21h93.63v85.21ZM3791.46,280.25h93.63v353.15h-93.63v-353.15Z"/>
      <path class="cls-1" d="M4269.02,590.2c-29.81,36.79-75.06,55.19-135.75,55.19s-105.94-18.4-135.75-55.19-44.71-81.09-44.71-132.89,14.9-95.06,44.71-132.4,75.05-56,135.75-56,105.94,18.67,135.75,56,44.71,81.47,44.71,132.4-14.9,96.09-44.71,132.89ZM4195.15,539.17c14.47-19.2,21.71-46.48,21.71-81.85s-7.24-62.6-21.71-81.69c-14.47-19.09-35.21-28.63-62.21-28.63s-47.79,9.55-62.37,28.63c-14.58,19.08-21.87,46.32-21.87,81.69s7.29,62.66,21.87,81.85c14.58,19.2,35.37,28.79,62.37,28.79s47.73-9.59,62.21-28.79Z"/>
      <path class="cls-1" d="M4664.6,300.5c23.12,19.12,34.68,50.82,34.68,95.09v237.81h-94.61v-214.81c0-18.57-2.47-32.83-7.4-42.77-9.01-18.14-26.16-27.22-51.46-27.22-31.09,0-52.43,13.28-64,39.85-6,14.04-9.01,31.97-9.01,53.78v191.15h-92.34v-352.5h89.42v51.51c11.83-18.14,23.01-31.21,33.55-39.2,18.92-14.26,42.91-21.38,71.95-21.38,36.35,0,66.08,9.56,89.2,28.67Z"/>
      <path class="cls-1" d="M4856.74,520.66c1.95,16.42,6.19,28.08,12.7,34.99,11.5,12.31,32.77,18.47,63.81,18.47,18.23,0,32.72-2.7,43.46-8.1,10.74-5.4,16.11-13.5,16.11-24.3s-4.33-18.25-12.98-23.65c-8.66-5.4-40.86-14.69-96.6-27.86-40.13-9.93-68.4-22.36-84.81-37.26-16.42-14.69-24.62-35.85-24.62-63.5,0-32.61,12.82-60.64,38.47-84.08,25.65-23.43,61.75-35.15,108.28-35.15s80.14,8.8,107.95,26.41c27.81,17.61,43.78,48.01,47.9,91.2h-92.34c-1.3-11.88-4.66-21.27-10.07-28.19-10.19-12.52-27.51-18.79-51.98-18.79-20.14,0-34.49,3.13-43.05,9.4-8.56,6.27-12.83,13.61-12.83,22.03,0,10.59,4.55,18.26,13.65,23,9.09,4.97,41.23,13.5,96.41,25.6,36.78,8.64,64.36,21.71,82.72,39.2,18.14,17.71,27.22,39.85,27.22,66.42,0,34.99-13.04,63.56-39.12,85.7s-66.39,33.21-120.92,33.21-96.69-11.72-123.2-35.15c-26.52-23.43-39.77-53.3-39.77-89.58h93.63Z"/>
    </g>
    <text class="cls-2" transform="translate(1192.09 873.23)"><tspan x="0" y="0">Insights</tspan></text>
    <g id="OBJECTS">
      <g>
        <g>
          <path class="cls-5" d="M319.57,238.82c-3.44-14.6-4.3-29.21-2.58-44.67C164.08,249.13,54.12,395.16,54.12,566.98c0,6.87,0,12.89.86,18.9,12.89-5.15,27.49-8.59,42.09-9.45v-9.45c-.86-148.62,91.92-276.62,222.49-328.16Z"/>
          <path class="cls-5" d="M804.07,389.15c-11.17,8.59-22.34,17.18-34.36,26.63,22.34,46.39,34.36,97.93,34.36,152.05v9.45c6.01,0,12.03.86,17.18,1.72,8.59,1.72,16.32,4.3,24.91,6.87,0-6.01.86-12.89.86-18.9-.86-63.57-16.32-123.7-42.95-177.82Z"/>
          <path class="cls-5" d="M450.14,920.91c-101.37,0-192.43-42.09-256.86-110.82-10.31,9.45-23.19,17.18-36.08,23.19,72.16,79.89,176.96,129.72,292.94,129.72s220.78-49.83,292.94-129.72c-12.89-6.01-25.77-13.74-36.08-23.19-64.43,68.72-156.35,110.82-256.86,110.82Z"/>
        </g>
        <g>
          <circle class="cls-5" cx="449.9" cy="207.77" r="103.94" transform="translate(-15.14 378.98) rotate(-45)"/>
          <circle class="cls-4" cx="420.08" cy="160.64" r="28.35"/>
        </g>
        <g>
          <g>
            <circle class="cls-5" cx="796.34" cy="711.3" r="103.95"/>
            <circle class="cls-4" cx="766.41" cy="663.27" r="28.35" transform="translate(-87.61 1209.13) rotate(-73.46)"/>
          </g>
          <g>
            <circle class="cls-5" cx="103.95" cy="711.3" r="103.95"/>
            <circle class="cls-4" cx="74.12" cy="663.37" r="28.35" transform="translate(-582.9 545.56) rotate(-73.46)"/>
          </g>
        </g>
        <g>
          <path class="cls-3" d="M862.49,266.31c-42.95,97.93-236.24,185.56-321.29,322.15-83.33,134.87-46.39,219.92-45.53,222.5h0c-4.3-2.58-150.33-91.06-97.07-271.46,56.7-192.43,261.15-266.31,354.79-368.53C851.32,64.43,839.3.86,838.44,0c3.44,2.58,91.92,109.96,24.05,266.31Z"/>
          <path class="cls-3" d="M377.98,532.61c-14.6,48.97-15.46,91.92-8.59,128.86-15.46-22.34-30.93-52.4-40.38-92.78-24.05-98.79-6.87-107.38-66.15-176.97,0,0,82.47,19.76,141.74,78.17-10.31,18.9-19.76,40.38-26.63,62.71Z"/>
        </g>
      </g>
    </g>
  </g>
</svg>